# Blender 4.1.1
# www.blender.org
mtllib botBase.mtl
o Cylinder
v 0.000000 -1.000000 -5.000000
v 0.000000 0.000000 -5.250000
v 3.535534 -1.000000 -3.535534
v 3.712311 0.000000 -3.712311
v 5.000000 -1.000000 0.000000
v 5.250000 0.000000 0.000000
v 3.535534 -1.000000 3.535534
v 3.712311 0.000000 3.712311
v 0.000000 -1.000000 5.000000
v 0.000000 0.000000 5.250000
v -3.535534 -1.000000 3.535534
v -3.712311 0.000000 3.712311
v -5.000000 -1.000000 0.000000
v -5.250000 0.000000 0.000000
v -3.535534 -1.000000 -3.535534
v -3.712311 0.000000 -3.712311
v 3.181981 0.400000 -3.181981
v 0.000000 0.400000 -4.500000
v 4.500000 0.400000 0.000000
v 3.181981 0.400000 3.181981
v 0.000000 0.400000 4.500000
v -3.181981 0.400000 3.181981
v -4.500000 0.400000 0.000000
v -3.181981 0.400000 -3.181981
v 3.535534 0.800000 -3.535534
v 0.000000 0.800000 -5.000000
v 5.000000 0.800000 0.000000
v 3.535534 0.800000 3.535534
v 0.000000 0.800000 5.000000
v -3.535534 0.800000 3.535534
v -5.000000 0.800000 0.000000
v -3.535534 0.800000 -3.535534
v 1.909188 0.900000 -1.909188
v 0.000000 0.900000 -2.700000
v 2.700000 0.900000 0.000000
v 1.909188 0.900000 1.909188
v 0.000000 0.900000 2.700000
v -1.909188 0.900000 1.909188
v -2.700000 0.900000 0.000000
v -1.909188 0.900000 -1.909188
v 1.767767 -1.000000 -4.267767
v 1.816248 0.008600 -4.384811
v 1.729760 0.791400 -4.176011
v -1.767767 -1.000000 4.267767
v -1.816248 0.008600 4.384811
v -1.729760 0.791400 4.176011
v 4.267767 -1.000000 1.767767
v 4.384811 0.008600 1.816248
v -4.267767 -1.000000 -1.767767
v -4.384811 0.008600 -1.816248
v 4.176011 0.791400 1.729760
v -4.176011 0.791400 -1.729760
v 3.348632 1.064320 -3.348632
v 3.181981 0.979132 -3.181981
v 0.000000 1.064320 -4.735681
v 0.000000 0.979132 -4.500000
v 4.500000 0.979132 0.000000
v 4.735681 1.064320 0.000000
v 3.348632 1.064320 3.348632
v 3.181981 0.979132 3.181981
v 0.000000 0.979132 4.500000
v 0.000000 1.064320 4.735681
v -3.348632 1.064320 3.348632
v -3.181981 0.979132 3.181981
v -4.500000 0.979132 0.000000
v -4.735681 1.064320 0.000000
v -3.348632 1.064320 -3.348632
v -3.181981 0.979132 -3.181981
v 1.590990 0.979132 -3.840990
v 1.662275 1.038738 -4.013086
v -1.590990 0.979132 3.840990
v -1.662275 1.038738 4.013086
v 3.840990 0.979132 1.590990
v 4.013086 1.038738 1.662275
v -3.840990 0.979132 -1.590990
v -4.013086 1.038738 -1.662275
vn 0.3522 -0.1740 -0.9196
vn 0.9002 -0.2250 -0.3729
vn 0.9196 -0.1740 0.3522
vn 0.3729 -0.2250 0.9002
vn -0.3522 -0.1740 0.9196
vn -0.9002 -0.2250 0.3729
vn -0.3272 0.6307 0.7037
vn -0.9196 -0.1740 -0.3522
vn -0.3729 -0.2250 -0.9002
vn -0.1102 0.9577 -0.2660
vn -0.8682 0.2743 -0.4136
vn 0.8876 0.2774 -0.3677
vn 0.2811 0.6786 0.6786
vn 0.7037 0.6307 0.3272
vn 0.3677 0.2774 0.8876
vn 0.6786 0.6786 -0.2811
vn -0.8876 0.2774 0.3677
vn -0.7289 0.6307 -0.2662
vn 0.2662 0.6307 -0.7289
vn 0.9239 -0.0000 -0.3827
vn -0.9239 -0.0000 -0.3827
vn 0.3827 -0.0000 0.9239
vn -0.3827 -0.0000 -0.9239
vn -0.2662 0.6307 0.7289
vn 0.7289 0.6307 0.2662
vn -0.4136 0.2743 0.8682
vn -0.6786 0.6786 0.2811
vn -0.7037 0.6307 -0.3272
vn 0.8682 0.2743 0.4136
vn -0.3677 0.2774 -0.8876
vn 0.4136 0.2743 -0.8682
vn -0.2811 0.6786 -0.6786
vn -0.9239 -0.0000 0.3827
vn -0.0000 1.0000 -0.0000
vn -0.2660 0.9577 0.1102
vn 0.1102 0.9577 0.2660
vn 0.2660 0.9577 -0.1102
vn -0.2660 0.9577 -0.1102
vn -0.1102 0.9577 0.2660
vn 0.2660 0.9577 0.1102
vn 0.1102 0.9577 -0.2660
vn 0.3215 0.2743 -0.9063
vn 0.3272 0.6307 -0.7037
vn 0.4012 -0.1740 -0.8993
vn -0.3215 0.2743 0.9063
vn 0.9239 -0.0000 0.3827
vn -0.4012 -0.1740 0.8993
vn 0.9063 0.2743 0.3215
vn 0.3827 -0.0000 -0.9239
vn -0.9063 0.2743 -0.3215
vn -0.8993 -0.1740 -0.4012
vn 0.8993 -0.1740 0.4012
vn -0.1253 0.9416 0.3125
vn -0.3366 0.9313 0.1394
vn -0.3125 0.9416 -0.1253
vn -0.1394 0.9313 -0.3366
vn 0.1253 0.9416 -0.3125
vn 0.3366 0.9313 -0.1394
vn 0.3125 0.9416 0.1253
vn 0.1394 0.9313 0.3366
vn -0.1323 0.9416 0.3095
vn 0.1323 0.9416 -0.3095
vn -0.3095 0.9416 -0.1323
vn 0.3095 0.9416 0.1323
vn -0.3827 -0.0000 0.9239
vt 0.811564 0.804735
vt 0.838049 0.833724
vt 0.795572 0.886522
vt 0.760653 0.870108
vt 0.363106 0.610559
vt 0.391830 0.549451
vt 0.600399 0.562070
vt 0.622893 0.633961
vt 0.809360 0.801419
vt 0.837682 0.832500
vt 0.794528 0.888089
vt 0.754668 0.871257
vt 0.621420 0.636909
vt 0.551665 0.607452
vt 0.558062 0.398412
vt 0.621420 0.375693
vt 0.811906 0.805191
vt 0.838223 0.834333
vt 0.795439 0.886884
vt 0.760616 0.870267
vt 0.633452 0.386798
vt 0.604728 0.447906
vt 0.396160 0.435287
vt 0.373665 0.363396
vt 0.857841 0.855854
vt 0.901324 0.821880
vt 0.904321 0.831970
vt 0.864162 0.862801
vt 0.809699 0.801509
vt 0.838022 0.832590
vt 0.794868 0.888179
vt 0.755008 0.871346
vt 0.388810 0.372753
vt 0.458565 0.402210
vt 0.452169 0.611250
vt 0.388810 0.633969
vt 0.545889 0.581860
vt 0.555129 0.438944
vt 0.626630 0.469471
vt 0.621034 0.553963
vt 0.896707 0.795361
vt 0.903468 0.819946
vt 0.858569 0.854904
vt 0.407547 0.508085
vt 0.588567 0.519046
vt 0.515848 0.411056
vt 0.509391 0.592399
vt 0.492183 0.585548
vt 0.498221 0.416404
vt 0.858230 0.854814
vt 0.903129 0.819857
vt 0.906112 0.830110
vt 0.864800 0.861964
vt 0.414489 0.491235
vt 0.583347 0.501103
vt 0.589011 0.489272
vt 0.407991 0.478311
vt 0.819024 0.896781
vt 0.865139 0.862054
vt 0.828857 0.900695
vt 0.819210 0.895503
vt 0.857793 0.855131
vt 0.864154 0.862041
vt 0.828838 0.899470
vt 0.567104 0.541845
vt 0.424353 0.531390
vt 0.416639 0.507813
vt 0.577533 0.516284
vt 0.912478 0.850188
vt 0.849707 0.909080
vt 0.834901 0.903228
vt 0.868390 0.865876
vt 0.908070 0.836715
vt 0.522559 0.589773
vt 0.529217 0.428703
vt 0.455102 0.570718
vt 0.464342 0.427801
vt 0.487671 0.419889
vt 0.481013 0.580959
vt 0.819025 0.896002
vt 0.828630 0.900024
vt 0.818685 0.896691
vt 0.828518 0.900605
vt 0.894239 0.797716
vt 0.582070 0.506122
vt 0.413211 0.496254
vt 0.906451 0.830199
vt 0.896368 0.795271
vt 0.500840 0.417263
vt 0.494383 0.598606
vt 0.893852 0.796782
vt 0.901077 0.820904
vt 0.518047 0.424114
vt 0.512009 0.593258
vt 0.429455 0.455512
vt 0.572206 0.465967
vt 0.579920 0.489544
vt 0.419026 0.481073
vt 0.109820 0.940447
vt 0.053163 0.875988
vt 0.058758 0.791495
vt 0.124655 0.733826
vt 0.209004 0.739241
vt 0.265662 0.803700
vt 0.260066 0.888192
vt 0.194169 0.945861
vt 0.536250 0.612724
vt 0.451901 0.607309
vt 0.383601 0.540191
vt 0.389197 0.455698
vt 0.460308 0.384633
vt 0.544658 0.390048
vt 0.850047 0.909170
vt 0.912818 0.850277
vt 0.928559 0.893660
vt 0.890904 0.926614
vt 0.848993 0.908695
vt 0.910722 0.851367
vt 0.926413 0.894399
vt 0.889392 0.926560
vt 0.928220 0.893570
vt 0.890565 0.926524
vt 0.849251 0.908021
vt 0.910646 0.850337
vt 0.926587 0.893276
vt 0.889753 0.925652
vt 0.904133 0.830977
vt 0.880870 0.760577
vt 0.835240 0.903318
vt 0.868729 0.865966
vt 0.908409 0.836805
vt 0.881467 0.761437
vt 0.834422 0.902651
vt 0.867628 0.866618
vt 0.906278 0.838010
vt 0.883853 0.754281
vt 0.883514 0.754191
vt 0.906124 0.837005
vt 0.867642 0.865837
vt 0.834645 0.902062
s 0
usemtl Material.001
f 41/1/1 42/2/1 4/3/1 3/4/1
f 3/5/2 4/6/2 6/7/2 5/8/2
f 47/9/3 48/10/3 8/11/3 7/12/3
f 7/13/4 8/14/4 10/15/4 9/16/4
f 44/17/5 45/18/5 12/19/5 11/20/5
f 11/21/6 12/22/6 14/23/6 13/24/6
f 46/25/7 29/26/7 62/27/7 72/28/7
f 49/29/8 50/30/8 16/31/8 15/32/8
f 15/33/9 16/34/9 2/35/9 1/36/9
f 18/37/10 24/38/10 40/39/10 34/40/10
f 50/30/11 14/41/11 31/42/11 52/43/11
f 6/7/12 4/6/12 25/44/12 27/45/12
f 29/46/13 28/47/13 59/48/13 62/49/13
f 51/50/14 27/51/14 58/52/14 74/53/14
f 10/15/15 8/14/15 28/47/15 29/46/15
f 27/45/16 25/44/16 53/54/16 58/55/16
f 14/23/17 12/22/17 30/56/17 31/57/17
f 32/58/18 52/43/18 76/59/18 67/60/18
f 25/61/19 43/62/19 70/63/19 53/64/19
f 22/65/20 23/66/20 65/67/20 64/68/20
f 19/69/21 20/70/21 60/71/21 73/72/21 57/73/21
f 24/38/22 18/37/22 56/74/22 68/75/22
f 20/76/23 21/77/23 61/78/23 60/79/23
f 30/80/24 46/25/24 72/28/24 63/81/24
f 28/82/25 51/50/25 74/53/25 59/83/25
f 45/18/26 10/84/26 29/26/26 46/25/26
f 31/57/27 30/56/27 63/85/27 66/86/27
f 52/43/28 31/42/28 66/87/28 76/59/28
f 48/10/29 6/88/29 27/51/29 51/50/29
f 2/35/30 16/34/30 32/89/30 26/90/30
f 42/2/31 2/91/31 26/92/31 43/62/31
f 26/90/32 32/89/32 67/93/32 55/94/32
f 17/95/33 19/96/33 57/97/33 54/98/33
f 33/99/34 34/100/34 40/101/34 39/102/34 38/103/34 37/104/34 36/105/34 35/106/34
f 23/66/35 22/65/35 38/107/35 39/108/35
f 21/77/36 20/76/36 36/109/36 37/110/36
f 19/96/37 17/95/37 33/111/37 35/112/37
f 24/113/38 23/114/38 39/115/38 40/116/38
f 22/117/39 21/118/39 37/119/39 38/120/39
f 20/70/40 19/69/40 35/121/40 36/122/40
f 17/123/41 18/124/41 34/125/41 33/126/41
f 4/3/42 42/2/42 43/62/42 25/61/42
f 43/62/43 26/92/43 55/127/43 70/63/43
f 1/128/44 2/91/44 42/2/44 41/1/44
f 12/19/45 45/18/45 46/25/45 30/80/45
f 23/114/46 24/113/46 68/129/46 75/130/46 65/131/46
f 9/132/47 10/84/47 45/18/47 44/17/47
f 8/11/48 48/10/48 51/50/48 28/82/48
f 21/118/49 22/117/49 64/133/49 71/134/49 61/135/49
f 16/31/50 50/30/50 52/43/50 32/58/50
f 13/136/51 14/41/51 50/30/51 49/29/51
f 5/137/52 6/88/52 48/10/52 47/9/52
f 70/63/53 55/127/53 56/138/53 69/139/53
f 58/55/54 53/54/54 54/98/54 57/97/54
f 74/53/55 58/52/55 57/73/55 73/72/55
f 62/49/56 59/48/56 60/79/56 61/78/56
f 72/28/57 62/27/57 61/135/57 71/134/57
f 66/86/58 63/85/58 64/68/58 65/67/58
f 76/59/59 66/87/59 65/131/59 75/130/59
f 55/94/60 67/93/60 68/75/60 56/74/60
f 53/64/61 70/63/61 69/139/61 54/140/61
f 63/81/62 72/28/62 71/134/62 64/133/62
f 59/83/63 74/53/63 73/72/63 60/71/63
f 67/60/64 76/59/64 75/130/64 68/129/64
f 18/124/65 17/123/65 54/140/65 69/139/65 56/138/65
