# Blender 4.1.1
# www.blender.org
mtllib kitchenCabinet.mtl
o Cube.001
v -0.000000 5.000000 5.000000
v 10.000000 5.000000 5.000000
v -0.000000 5.000000 -5.000000
v 10.000000 5.000000 -5.000000
v 0.000000 -5.000000 5.000000
v 10.000000 -5.000000 5.000000
v 0.000000 -5.000000 -5.000000
v 10.000000 -5.000000 -5.000000
v 11.000000 5.000000 5.000000
v 11.000000 5.000000 -5.000000
v 11.000000 -5.000000 -5.000000
v 11.000000 -5.000000 5.000000
v 10.000000 -5.699999 -5.000000
v 10.000000 -5.699999 5.000000
v 11.000000 -5.699999 -5.000000
v 11.000000 -5.699999 5.000000
v 10.500000 -6.000000 5.000000
v 10.500000 -6.000000 -5.000000
v 9.500000 -5.224999 -4.500000
v 0.500000 -5.225000 -4.500000
v 9.500000 -5.224999 4.500000
v 0.500000 -5.225000 4.500000
v 9.500000 -4.774999 -4.500000
v 0.500000 -4.775000 -4.500000
v 9.500000 -4.774999 4.500000
v 0.500000 -4.775000 4.500000
vn -0.0000 -0.0000 -1.0000
vn -0.0000 -1.0000 -0.0000
vn -0.0000 -0.0000 1.0000
vn 1.0000 -0.0000 -0.0000
vn 0.5145 -0.8575 -0.0000
vn -1.0000 -0.0000 -0.0000
vn -0.5145 -0.8575 -0.0000
vt 0.417451 0.895062
vt 0.566110 0.896199
vt 0.482447 0.812428
vt 0.546259 0.809278
vt 0.476479 0.923690
vt 0.529617 0.927996
vt 0.575536 0.751245
vt 0.417451 0.741388
vt 0.780664 0.809743
vt 0.848822 0.872875
vt 0.871266 0.767393
vt 0.775899 0.931298
vt 0.888036 0.751245
vt 0.788979 0.923690
vt 0.794947 0.812428
vt 0.878610 0.896199
vt 0.786461 0.933988
vt 0.783589 0.936171
vt 0.780416 0.935003
vt 0.786616 0.802685
vt 0.783777 0.804062
vt 0.789782 0.804620
vt 0.926521 0.751861
vt 0.743046 0.770189
vt 0.739752 0.954548
vt 0.923227 0.936219
vt 0.730102 0.758261
vt 0.730102 0.965020
vt 0.936171 0.741388
vt 0.936171 0.948147
s 0
f 3/1/1 4/2/1 8/3/1 7/4/1
f 7/4/2 8/3/2 6/5/2 5/6/2
f 5/6/3 6/5/3 2/7/3 1/8/3
f 11/9/4 10/10/4 9/11/4 12/12/4
f 2/13/3 6/14/3 12/12/3 9/11/3
f 8/15/1 4/16/1 10/10/1 11/9/1
f 12/12/3 6/14/3 14/17/3 17/18/3 16/19/3
f 17/18/5 18/20/5 15/21/5 16/19/5
f 11/9/4 12/12/4 16/19/4 15/21/4
f 6/14/6 8/15/6 13/22/6 14/17/6
f 8/15/1 11/9/1 15/21/1 18/20/1 13/22/1
f 14/17/7 13/22/7 18/20/7 17/18/7
f 19/23/2 21/24/2 22/25/2 20/26/2
f 21/24/3 25/27/3 26/28/3 22/25/3
f 23/29/1 19/23/1 20/26/1 24/30/1
f 21/24/4 19/23/4 23/29/4 25/27/4
f 26/28/6 24/30/6 20/26/6 22/25/6
