# Blender 4.1.1
# www.blender.org
mtllib kitchenSink.mtl
o Cube.001
v -0.000000 -0.000000 0.000000
v 10.000000 0.000000 0.000000
v -0.000000 -0.000000 -20.000000
v 10.000000 0.000000 -20.000000
v 0.000000 -10.000000 0.000000
v 10.000000 -10.000000 0.000000
v 0.000000 -10.000000 -20.000000
v 10.000000 -10.000000 -20.000000
v 11.000000 -2.000000 -4.000000
v 11.000000 -2.000000 -16.000000
v 11.000000 -8.000000 -16.000000
v 11.000000 -8.000000 -4.000000
v 10.000000 -10.700000 -20.000000
v 10.000000 -10.700000 0.000000
v 11.000000 -10.700000 -20.000000
v 11.000000 -10.700000 0.000000
v 10.500000 -11.000000 0.000000
v 10.500000 -11.000000 -20.000000
v 9.500000 -10.224999 -9.500000
v 0.500000 -10.224999 -9.500000
v 9.500000 -10.224999 -0.500000
v 0.500000 -10.224999 -0.500000
v 9.500000 -9.775000 -9.500000
v 0.500000 -9.775000 -9.500000
v 9.500000 -9.775000 -0.500000
v 0.500000 -9.775000 -0.500000
v 9.500000 -10.224999 -19.500000
v 0.500000 -10.224999 -19.500000
v 9.500000 -10.224999 -10.500000
v 0.500000 -10.224999 -10.500000
v 9.500000 -9.775000 -19.500000
v 0.500000 -9.775000 -19.500000
v 9.500000 -9.775000 -10.500000
v 0.500000 -9.775000 -10.500000
v 11.000000 0.000000 0.000000
v 11.000000 0.000000 -20.000000
v 11.000000 -10.000000 -20.000000
v 11.000000 -10.000000 0.000000
v 11.000000 -2.500000 -4.500000
v 11.000000 -2.500000 -15.500000
v 11.000000 -7.500000 -15.500000
v 11.000000 -7.500000 -4.500000
v 8.000000 -2.500000 -4.500000
v 8.000000 -2.500000 -15.500000
v 8.000000 -7.500000 -15.500000
v 8.000000 -7.500000 -4.500000
v 11.199999 -2.000000 -4.000000
v 11.199999 -2.000000 -16.000000
v 11.200000 -8.000000 -16.000000
v 11.200000 -8.000000 -4.000000
v 11.199999 -2.500000 -4.500000
v 11.199999 -2.500000 -15.500000
v 11.200000 -7.500000 -15.500000
v 11.200000 -7.500000 -4.500000
vn -0.0000 -0.0000 -1.0000
vn -0.0000 -1.0000 -0.0000
vn -0.0000 -0.0000 1.0000
vn 0.5145 -0.8575 -0.0000
vn 1.0000 -0.0000 -0.0000
vn -1.0000 -0.0000 -0.0000
vn -0.5145 -0.8575 -0.0000
vn -0.0000 1.0000 -0.0000
vt 0.577606 0.736365
vt 0.511079 0.827222
vt 0.479612 0.829058
vt 0.411529 0.723782
vt 0.483353 0.875781
vt 0.427825 0.962442
vt 0.514132 0.870530
vt 0.577606 0.963718
vt 0.225864 0.719308
vt 0.083245 0.721691
vt 0.078892 0.717166
vt 0.229655 0.714011
vt 0.944697 0.961656
vt 0.765154 0.992286
vt 0.793692 0.965302
vt 0.931648 0.950521
vt 0.743331 0.719736
vt 0.926889 0.709028
vt 0.912225 0.725947
vt 0.776761 0.733662
vt 0.769829 0.962080
vt 0.776581 0.956271
vt 0.784020 0.958537
vt 0.762455 0.747808
vt 0.769402 0.745022
vt 0.754879 0.742383
vt 0.954421 0.954363
vt 0.733380 0.932281
vt 0.729411 0.710175
vt 0.950453 0.732256
vt 0.717786 0.946651
vt 0.717786 0.697559
vt 0.966047 0.966979
vt 0.966047 0.717887
vt 0.958328 0.958110
vt 0.737286 0.936029
vt 0.733317 0.713923
vt 0.954359 0.736004
vt 0.721692 0.950399
vt 0.721692 0.701307
vt 0.969953 0.970727
vt 0.969953 0.721634
vt 0.904127 0.908090
vt 0.889499 0.775774
vt 0.802993 0.784761
vt 0.813639 0.917811
vt 0.231192 0.952346
vt 0.081952 0.955300
vt 0.124695 0.885465
vt 0.178382 0.894200
vt 0.247621 0.693302
vt 0.254136 0.978488
vt 0.248027 0.973218
vt 0.243298 0.700531
vt 0.235718 0.957001
vt 0.077979 0.960828
vt 0.059156 0.982341
vt 0.061278 0.696330
vt 0.067175 0.701461
vt 0.063719 0.974752
vt 0.133243 0.777650
vt 0.185370 0.786238
s 0
f 3/1/1 4/2/1 8/3/1 7/4/1
f 7/4/2 8/3/2 6/5/2 5/6/2
f 5/6/3 6/5/3 2/7/3 1/8/3
f 40/9/3 41/10/3 53/11/3 52/12/3
f 2/13/3 6/14/3 38/15/3 35/16/3
f 8/17/1 4/18/1 36/19/1 37/20/1
f 38/15/3 6/14/3 14/21/3 17/22/3 16/23/3
f 17/22/4 18/24/4 15/25/4 16/23/4
f 37/20/5 38/15/5 16/23/5 15/25/5
f 6/14/6 8/17/6 13/26/6 14/21/6
f 8/17/1 37/20/1 15/25/1 18/24/1 13/26/1
f 14/21/7 13/26/7 18/24/7 17/22/7
f 19/27/2 21/28/2 22/29/2 20/30/2
f 21/28/3 25/31/3 26/32/3 22/29/3
f 23/33/1 19/27/1 20/30/1 24/34/1
f 21/28/5 19/27/5 23/33/5 25/31/5
f 26/32/6 24/34/6 20/30/6 22/29/6
f 1/8/8 2/7/8 4/2/8 3/1/8
f 36/19/8 4/18/8 2/13/8 35/16/8
f 27/35/2 29/36/2 30/37/2 28/38/2
f 29/36/3 33/39/3 34/40/3 30/37/3
f 31/41/1 27/35/1 28/38/1 32/42/1
f 29/36/5 27/35/5 31/41/5 33/39/5
f 34/40/6 32/42/6 28/38/6 30/37/6
f 9/43/5 10/44/5 36/19/5 35/16/5
f 10/44/5 11/45/5 37/20/5 36/19/5
f 11/45/5 12/46/5 38/15/5 37/20/5
f 12/46/5 9/43/5 35/16/5 38/15/5
f 39/47/1 42/48/1 46/49/1 43/50/1
f 10/51/8 9/52/8 47/53/8 48/54/8
f 42/48/1 39/47/1 51/55/1 54/56/1
f 12/57/2 11/58/2 49/59/2 50/60/2
f 45/61/5 44/62/5 43/50/5 46/49/5
f 41/10/3 40/9/3 44/62/3 45/61/3
f 42/48/8 41/10/8 45/61/8 46/49/8
f 40/9/2 39/47/2 43/50/2 44/62/2
f 47/53/5 50/60/5 54/56/5 51/55/5
f 49/59/5 48/54/5 52/12/5 53/11/5
f 50/60/5 49/59/5 53/11/5 54/56/5
f 48/54/5 47/53/5 51/55/5 52/12/5
f 9/52/3 12/57/3 50/60/3 47/53/3
f 11/58/1 10/51/1 48/54/1 49/59/1
f 41/10/8 42/48/8 54/56/8 53/11/8
f 39/47/2 40/9/2 52/12/2 51/55/2
o Cylinder
v 10.199999 -1.400000 -10.000001
v 12.599999 -1.400000 -10.000001
v 10.199999 -1.123607 -9.619578
v 12.599999 -1.123607 -9.619578
v 10.199999 -0.676393 -9.764887
v 12.599999 -0.676393 -9.764887
v 10.199999 -0.676393 -10.235115
v 12.599999 -0.676393 -10.235115
v 10.199999 -1.123607 -10.380424
v 12.599999 -1.123607 -10.380424
v 13.999999 -1.123607 -9.619578
v 13.999999 -1.400000 -10.000001
v 13.999999 -0.676393 -9.764887
v 13.999999 -0.676393 -10.235115
v 13.999999 -1.123607 -10.380424
v 15.476394 -2.199999 -9.619578
v 15.200001 -2.199999 -10.000001
v 15.923607 -2.199999 -9.764887
v 15.923607 -2.199999 -10.235115
v 15.476394 -2.199999 -10.380424
v 15.219893 -1.045159 -10.246870
v 14.985106 -1.397340 -10.399444
v 14.985106 -1.397340 -9.600556
v 15.219893 -1.045159 -9.753130
v 14.840000 -1.615000 -10.000000
v 15.312597 -2.912596 -9.619578
v 15.117158 -2.717157 -10.000001
v 15.628825 -3.228824 -9.764887
v 15.628825 -3.228824 -10.235115
v 15.312597 -2.912596 -10.380424
v 14.705026 -3.271367 -9.619578
v 14.705026 -2.994974 -10.000001
v 14.705026 -3.718580 -9.764887
v 14.705026 -3.718580 -10.235115
v 14.705026 -3.271367 -10.380424
v 14.005026 -3.271367 -9.619578
v 14.005026 -2.994973 -10.000001
v 14.005026 -3.718580 -9.764887
v 14.005026 -3.718580 -10.235115
v 14.005026 -3.271367 -10.380424
v 11.700000 -1.154508 -8.475528
v 10.700000 -1.154508 -8.475528
v 11.700000 -0.595491 -8.293892
v 10.700000 -0.595491 -8.293892
v 11.700000 -0.595491 -7.706107
v 10.700000 -0.595492 -7.706107
v 11.700000 -1.154509 -7.524471
v 10.700000 -1.154509 -7.524471
v 10.700000 -1.500000 -7.999999
v 11.700000 -1.500000 -7.999999
v 11.700000 -1.154508 -12.475528
v 10.700000 -1.154508 -12.475528
v 11.700000 -0.595491 -12.293892
v 10.700000 -0.595491 -12.293892
v 11.700000 -0.595491 -11.706107
v 10.700000 -0.595492 -11.706107
v 11.700000 -1.154509 -11.524471
v 10.700000 -1.154509 -11.524471
v 10.700000 -1.500000 -11.999999
v 11.700000 -1.500000 -11.999999
vn -0.0000 -0.8090 0.5878
vn -0.0000 0.3090 0.9511
vn -0.0000 1.0000 -0.0000
vn -0.0000 0.3090 -0.9511
vn -0.0000 -0.8090 -0.5878
vn 0.3153 0.1778 -0.9322
vn 0.3235 -0.0852 -0.9424
vn 0.3153 0.1778 0.9322
vn -0.7257 -0.4523 -0.5185
vn 0.8539 0.5204 -0.0000
vn -0.7257 -0.4523 0.5185
vn -0.2212 -0.8047 0.5509
vn 0.2894 0.9572 -0.0000
vn -0.2212 -0.8047 -0.5509
vn 0.0821 0.3267 0.9415
vn 0.0821 0.3267 -0.9415
vn 0.1617 -0.2919 -0.9427
vn 0.3235 -0.0852 0.9424
vn -0.8189 0.1642 -0.5500
vn 0.9613 -0.2754 -0.0000
vn -0.8189 0.1642 0.5500
vn -0.0000 0.8090 -0.5878
vn 0.1617 -0.2919 0.9427
vn -0.4416 0.7073 -0.5520
vn 0.4684 -0.8835 -0.0000
vn -0.4416 0.7073 0.5520
vn -1.0000 -0.0000 -0.0000
vn -0.0000 -1.0000 -0.0000
vn -0.0000 0.8090 0.5878
vn -0.0000 -0.3090 -0.9511
vn -0.0000 -0.3090 0.9511
vn 1.0000 -0.0000 -0.0000
vt 0.108121 0.750072
vt 0.073213 0.742039
vt 0.072632 0.743042
vt 0.093822 0.822450
vt 0.072902 0.743811
vt 0.100360 0.860026
vt 0.073501 0.743801
vt 0.114057 0.860139
vt 0.073778 0.743031
vt 0.033550 0.759861
vt 0.035550 0.768182
vt 0.121217 0.822677
vt 0.033910 0.801187
vt 0.028119 0.799926
vt 0.066264 0.833744
vt 0.070394 0.799569
vt 0.030402 0.768400
vt 0.032617 0.760097
vt 0.032964 0.773420
vt 0.064583 0.814452
vt 0.065540 0.810387
vt 0.025507 0.800709
vt 0.019143 0.802891
vt 0.055312 0.814506
vt 0.060819 0.871352
vt 0.026787 0.802558
vt 0.062930 0.787492
vt 0.064244 0.811833
vt 0.064355 0.811304
vt 0.062620 0.814418
vt 0.063920 0.816698
vt 0.063408 0.806628
vt 0.063883 0.810578
vt 0.064172 0.811462
vt 0.064074 0.811370
vt 0.063979 0.812029
vt 0.064145 0.812118
vt 0.064084 0.811650
vt 0.064157 0.811645
vt 0.064119 0.811734
vt 0.225169 0.836579
vt 0.225169 0.750072
vt 0.259772 0.750072
vt 0.259772 0.836579
vt 0.192102 0.782748
vt 0.152611 0.811440
vt 0.167695 0.857865
vt 0.216509 0.857865
vt 0.231593 0.811440
vt 0.121361 0.836579
vt 0.121361 0.750072
vt 0.155963 0.750072
vt 0.155963 0.836579
vt 0.190566 0.750072
vt 0.190566 0.836579
vt 0.294375 0.750072
vt 0.294375 0.836579
vt 0.152611 0.852585
vt 0.192102 0.823894
vt 0.231593 0.852585
vt 0.216509 0.899010
vt 0.167695 0.899010
vt 0.225169 0.923230
vt 0.225169 0.836722
vt 0.259772 0.836722
vt 0.259772 0.923230
vt 0.192102 0.748633
vt 0.152611 0.777325
vt 0.167695 0.823750
vt 0.216509 0.823750
vt 0.231593 0.777325
vt 0.121361 0.923230
vt 0.121361 0.836722
vt 0.155963 0.836722
vt 0.155963 0.923230
vt 0.190566 0.836722
vt 0.190566 0.923230
vt 0.294375 0.836722
vt 0.294375 0.923230
vt 0.152611 0.927846
vt 0.192102 0.899154
vt 0.231593 0.927846
vt 0.216509 0.974270
vt 0.167695 0.974270
s 0
f 55/63/9 56/64/9 58/65/9 57/66/9
f 57/66/10 58/65/10 60/67/10 59/68/10
f 59/68/11 60/67/11 62/69/11 61/70/11
f 64/71/12 62/69/12 68/72/12 69/73/12
f 61/70/12 62/69/12 64/71/12 63/74/12
f 63/74/13 64/71/13 56/64/13 55/63/13
f 76/75/14 75/76/14 73/77/14 74/78/14
f 60/67/10 58/65/10 65/79/10 67/80/10
f 56/64/13 64/71/13 69/73/13 66/81/13
f 58/65/9 56/64/9 66/81/9 65/79/9
f 62/69/11 60/67/11 67/80/11 68/72/11
f 74/78/15 73/77/15 83/82/15 84/83/15
f 78/84/16 77/85/16 70/86/16 72/87/16
f 79/88/17 76/75/17 74/78/17 71/89/17
f 75/76/18 78/84/18 72/87/18 73/77/18
f 77/85/19 79/88/19 71/89/19 70/86/19
f 65/79/20 66/81/20 79/88/20 77/85/20
f 68/72/21 67/80/21 78/84/21 75/76/21
f 66/81/22 69/73/22 76/75/22 79/88/22
f 67/80/23 65/79/23 77/85/23 78/84/23
f 69/73/24 68/72/24 75/76/24 76/75/24
f 84/83/25 83/82/25 88/90/25 89/91/25
f 72/87/26 70/86/26 80/92/26 82/93/26
f 71/89/27 74/78/27 84/83/27 81/94/27
f 73/77/28 72/87/28 82/93/28 83/82/28
f 70/86/29 71/89/29 81/94/29 80/92/29
f 86/95/30 89/91/30 94/96/30 91/97/30
f 82/93/31 80/92/31 85/98/31 87/99/31
f 81/94/32 84/83/32 89/91/32 86/95/32
f 83/82/33 82/93/33 87/99/33 88/90/33
f 80/92/34 81/94/34 86/95/34 85/98/34
f 90/100/35 91/97/35 94/96/35 93/101/35 92/102/35
f 88/90/36 87/99/36 92/102/36 93/101/36
f 85/98/37 86/95/37 91/97/37 90/100/37
f 89/91/38 88/90/38 93/101/38 94/96/38
f 87/99/39 85/98/39 90/100/39 92/102/39
f 98/103/12 97/104/12 95/105/12 96/106/12
f 103/107/35 102/108/35 100/109/35 98/110/35 96/111/35
f 103/112/9 104/113/9 101/114/9 102/115/9
f 102/115/10 101/114/10 99/116/10 100/117/10
f 96/106/13 95/105/13 104/118/13 103/119/13
f 100/117/11 99/116/11 97/104/11 98/103/11
f 101/120/40 104/121/40 95/122/40 97/123/40 99/124/40
f 108/125/12 107/126/12 105/127/12 106/128/12
f 113/129/35 112/130/35 110/131/35 108/132/35 106/133/35
f 113/134/9 114/135/9 111/136/9 112/137/9
f 112/137/10 111/136/10 109/138/10 110/139/10
f 106/128/13 105/127/13 114/140/13 113/141/13
f 110/139/11 109/138/11 107/126/11 108/125/11
f 111/142/40 114/143/40 105/144/40 107/145/40 109/146/40
