# Blender 4.1.1
# www.blender.org
mtllib kitchenCornerCabinet.mtl
o Cube.001
v -0.000000 -0.000002 0.000000
v 0.000001 -10.000002 0.000000
v 10.000001 -10.000001 0.000000
v 10.000001 -10.000001 -10.000000
v 11.000000 -0.000001 0.000000
v 11.000001 -10.000001 -10.000000
v 11.000001 -10.000001 0.000000
v 10.000001 -10.700001 -9.000000
v 10.000001 -10.700001 0.000000
v 11.000001 -10.700001 -9.000000
v 11.000001 -10.700001 0.000000
v 10.500001 -11.000001 0.000000
v 10.500001 -11.000001 -9.000000
v 9.500001 -10.225000 -9.500000
v 0.500001 -10.225001 -9.500000
v 9.500001 -10.225000 -0.500000
v 0.500001 -10.225001 -0.500000
v 9.500001 -9.775001 -9.500000
v 0.500001 -9.775002 -9.500000
v 9.500001 -9.775001 -0.500000
v 0.500001 -9.775002 -0.500000
v 0.000002 -20.000002 -20.000000
v 0.000001 -10.000002 -10.000000
v 0.000002 -20.000002 -10.000000
v 10.000002 -20.000000 -10.000000
v 11.000002 -20.000000 -20.000000
v 11.000002 -20.000000 -10.000000
v 10.000002 -20.000000 -9.300001
v 10.000001 -11.000002 -9.299999
v 11.000002 -20.000000 -9.300001
v 11.000001 -11.000002 -9.299999
v 10.500001 -11.000002 -9.000000
v 10.500002 -20.000000 -9.000000
v 9.500002 -19.500000 -9.775002
v 0.500002 -19.500002 -9.775002
v 9.500001 -10.500002 -9.775000
v 0.500001 -10.500002 -9.775000
v 9.500002 -19.500000 -10.225000
v 0.500002 -19.500002 -10.225000
v 9.500001 -10.500002 -10.225000
v 0.500001 -10.500002 -10.225000
v 11.000000 -0.000001 -20.000000
v 10.000002 -20.000002 -20.000000
v 10.000000 -0.000002 0.000000
v -0.000000 -0.000001 -20.000000
v 10.000000 -0.000001 -20.000000
vn 1.0000 -0.0000 -0.0000
vn -0.0000 -1.0000 -0.0000
vn -0.0000 -0.0000 1.0000
vn 0.5145 -0.8575 -0.0000
vn -1.0000 -0.0000 -0.0000
vn -0.5145 -0.8575 -0.0000
vn -0.0000 -0.0000 -1.0000
vn 0.5145 -0.0000 0.8575
vn -0.5145 -0.0000 0.8575
vn -0.0000 1.0000 -0.0000
vn 0.3906 -0.6509 0.6509
vn -0.3906 -0.6509 0.6509
vt 0.728613 0.876080
vt 0.793892 0.816903
vt 0.765348 0.936203
vt 0.606260 0.751412
vt 0.544299 0.805644
vt 0.506029 0.787605
vt 0.497186 0.687773
vt 0.712379 0.872356
vt 0.723736 0.866721
vt 0.727184 0.867339
vt 0.728338 0.870203
vt 0.783780 0.805000
vt 0.786620 0.812877
vt 0.236909 0.567300
vt 0.336504 0.440335
vt 0.342878 0.450938
vt 0.255837 0.557909
vt 0.775960 0.802538
vt 0.743831 0.941882
vt 0.747190 0.753944
vt 0.934227 0.735260
vt 0.930868 0.923198
vt 0.733994 0.741785
vt 0.944064 0.724585
vt 0.733994 0.952558
vt 0.944064 0.935357
vt 0.398891 0.764258
vt 0.470348 0.819835
vt 0.789877 0.809974
vt 0.852185 0.747307
vt 0.843496 0.731716
vt 0.912801 0.771757
vt 0.783785 0.804994
vt 0.840464 0.747361
vt 0.844047 0.748867
vt 0.772136 0.796176
vt 0.839590 0.742376
vt 0.778532 0.799233
vt 0.933628 0.923699
vt 0.747236 0.943702
vt 0.743968 0.756268
vt 0.930360 0.736265
vt 0.733994 0.958702
vt 0.733994 0.747464
vt 0.943601 0.932503
vt 0.943601 0.721266
vt 0.894152 0.903814
vt 0.347165 0.445430
vt 0.440470 0.857925
vt 0.369436 0.864539
vt 0.465484 0.893640
vt 0.416026 0.960942
vt 0.762408 0.943787
vt 0.920038 0.767794
vt 0.902557 0.911346
vt 0.535559 0.877419
vt 0.606260 0.941177
s 0
f 7/1/1 6/2/1 5/3/1
f 22/4/2 43/5/2 25/6/2 24/7/2
f 7/1/3 3/8/3 9/9/3 12/10/3 11/11/3
f 12/10/4 13/12/4 10/13/4 11/11/4
f 6/2/1 7/1/1 11/11/1 10/13/1
f 3/14/5 4/15/5 8/16/5 9/17/5
f 9/9/6 8/18/6 13/12/6 12/10/6
f 14/19/2 16/20/2 17/21/2 15/22/2
f 16/20/3 20/23/3 21/24/3 17/21/3
f 18/25/7 14/19/7 15/22/7 19/26/7
f 16/20/1 14/19/1 18/25/1 20/23/1
f 21/24/5 19/26/5 15/22/5 17/21/5
f 23/27/3 24/7/3 25/6/3 4/28/3
f 6/2/1 10/13/1 31/29/1
f 27/30/2 25/31/2 26/32/2
f 32/33/8 33/34/8 30/35/8 31/29/8
f 4/36/5 25/31/5 28/37/5 29/38/5
f 25/31/2 27/30/2 30/35/2 33/34/2 28/37/2
f 29/38/9 28/37/9 33/34/9 32/33/9
f 34/39/3 36/40/3 37/41/3 35/42/3
f 36/40/10 40/43/10 41/44/10 37/41/10
f 38/45/2 34/39/2 35/42/2 39/46/2
f 36/40/1 34/39/1 38/45/1 40/43/1
f 41/44/5 39/46/5 35/42/5 37/41/5
f 10/13/11 13/12/11 32/33/11 31/29/11
f 13/12/12 8/18/12 29/38/12 32/33/12
f 6/2/1 26/32/1 42/47/1
f 8/16/5 4/15/5 29/48/5
f 6/2/1 31/29/1 30/35/1 27/30/1
f 27/30/1 26/32/1 6/2/1
f 4/28/2 3/49/2 2/50/2 23/27/2
f 2/50/3 3/49/3 44/51/3 1/52/3
f 7/1/3 5/3/3 3/8/3
f 6/2/1 42/47/1 5/3/1
f 3/8/3 5/3/3 44/53/3
f 43/54/2 26/32/2 25/31/2
f 42/47/10 46/55/10 44/53/10 5/3/10
f 1/52/10 44/51/10 46/56/10 45/57/10
f 43/54/7 46/55/7 42/47/7 26/32/7
f 22/4/7 45/57/7 46/56/7 43/5/7
