# Blender 4.1.1
# www.blender.org
mtllib pestBug.mtl
o Cylinder
v -1.000000 0.337990 -1.000000
v 1.000000 0.337990 -1.000000
v -1.000000 0.337990 1.000000
v 1.000000 0.337990 1.000000
v -1.000000 0.550122 0.707107
v 1.000000 0.550122 0.707107
v -1.000000 0.529480 0.000000
v 1.000000 0.529479 0.000000
v -1.000000 0.550122 -0.707107
v 1.000000 0.550122 -0.707107
v -1.000000 0.629480 0.068487
v -1.000000 0.629480 -0.068487
v 1.000000 0.629479 -0.068487
v 1.000000 0.629479 0.068487
v 1.500000 0.337990 -0.800000
v 1.500000 0.337990 0.800000
v 1.500000 0.550122 0.565685
v 1.500000 0.529479 0.000000
v 1.500000 0.550122 -0.565685
v 1.500000 0.629479 -0.054789
v 1.500000 0.629479 0.054789
v 1.900000 0.337990 -0.320000
v 1.900000 0.337990 0.320000
v 1.900000 0.550122 0.226274
v 2.000000 0.529479 0.000000
v 1.900000 0.550122 -0.226274
v 1.900000 0.629479 -0.021916
v 1.900000 0.629479 0.021916
v 2.100000 0.337990 0.000000
v -1.500000 0.337990 -0.900000
v -1.500000 0.337990 0.900000
v -1.500000 0.550122 0.636396
v -1.500000 0.599479 0.000000
v -1.500000 0.550122 -0.636396
v -1.500000 0.629480 0.061638
v -1.500000 0.629480 -0.061638
v -2.000000 0.337990 -0.630000
v -2.000000 0.337990 0.630000
v -2.000000 0.550122 0.445477
v -2.300000 0.321202 -0.582120
v -2.000000 0.550122 -0.445477
v -2.000000 0.629480 0.043147
v -2.000000 0.629480 -0.043147
v -2.300000 0.321202 0.582120
v -2.300000 0.554548 0.411621
v -2.300000 0.554548 -0.411621
v -2.300000 0.641841 0.039867
v -2.300000 0.641841 -0.039867
v -2.700000 0.321202 -0.349272
v -2.700000 0.321202 0.349272
v -2.700000 0.554548 0.246973
v -2.700000 0.554548 -0.246973
v -2.650000 0.591841 0.023920
v -2.650000 0.591841 -0.023920
v -2.850000 0.321202 0.261954
v -2.850000 0.321202 -0.261954
v -2.850000 0.437875 0.185229
v -2.850000 0.437875 -0.185229
v -2.850000 0.481522 0.017940
v -2.950000 0.321202 0.000000
v -2.850000 0.481522 -0.017940
v -1.000000 -0.162010 0.000000
v 1.000000 -0.162010 0.000000
v 1.500000 -0.062010 0.000000
v 1.900000 0.037990 0.000000
v -1.500000 -0.162010 0.000000
v -2.000000 -0.062010 0.000000
v -2.300000 0.021202 0.000000
v -2.700000 0.021202 0.000000
v -2.850000 0.021202 0.000000
v -1.000000 0.037990 0.700000
v 1.000000 0.037990 0.700000
v -2.000000 0.037990 0.441000
v 1.500000 0.037990 0.560000
v -1.500000 0.037990 0.630000
v 1.500000 0.037990 -0.560000
v -1.500000 0.037990 -0.630000
v -1.000000 0.037990 -0.700000
v 1.000000 0.037990 -0.700000
v -2.000000 0.037990 -0.441000
vn -0.0000 0.8099 0.5866
vn -0.0000 0.9924 -0.1233
vn -0.0000 0.5651 0.8251
vn -0.0000 0.8099 -0.5866
vn -0.0000 0.5651 -0.8251
vn -0.0000 0.9924 0.1233
vn -0.0226 0.5649 0.8248
vn 0.0349 0.9918 -0.1232
vn -0.0000 0.4805 -0.8770
vn 0.0042 0.9881 0.1535
vn 0.1865 0.7283 0.6594
vn 0.2284 0.7885 -0.5711
vn 0.1291 0.9799 -0.1522
vn -0.0719 0.4793 0.8747
vn 0.6131 0.3193 0.7226
vn -0.0000 0.2141 -0.9768
vn 0.0297 0.9318 0.3618
vn 0.6272 0.5774 -0.5227
vn 0.7111 0.6554 0.2545
vn 0.7111 0.6554 -0.2545
vn 0.8368 0.4370 0.3299
vn 0.8368 0.4370 -0.3299
vn 0.8257 0.2280 0.5160
vn 0.8257 0.2280 -0.5160
vn -0.1165 0.8044 0.5826
vn -0.0883 0.7760 -0.6245
vn -0.0019 0.9906 -0.1368
vn -0.0174 0.9922 0.1233
vn 0.0789 0.5633 0.8225
vn 0.0060 0.8991 -0.4376
vn -0.0072 0.9811 -0.1935
vn 0.0162 0.8990 0.4376
vn 0.0162 0.8990 -0.4376
vn -0.0522 0.9893 0.1366
vn -0.2768 0.6306 -0.7250
vn -0.3207 0.7379 0.5938
vn 0.0599 0.9982 -0.0000
vn 0.0412 0.9992 -0.0000
vn -0.0074 0.9811 0.1935
vn -0.0821 0.5880 -0.8047
vn -0.1552 0.6483 0.7454
vn 0.0376 0.9728 -0.2284
vn -0.0937 0.9692 0.2276
vn -0.1414 0.9899 -0.0000
vn -0.1461 0.9805 -0.1312
vn -0.3528 0.3757 -0.8570
vn -0.4254 0.5339 0.7307
vn -0.9096 0.2283 -0.3472
vn -0.4830 0.8756 -0.0000
vn -0.8475 0.5136 -0.1340
vn -0.9096 0.2283 0.3472
vn -0.8475 0.5136 0.1340
vn -0.6505 0.7349 0.1917
vn -0.4374 0.4941 0.7514
vn -0.4835 0.8745 -0.0378
vn -0.8485 0.5292 -0.0000
vn -0.5675 0.3306 -0.7541
vn -0.0000 -0.7071 0.7071
vn 0.2136 -0.6103 -0.7628
vn 0.6838 -0.4558 -0.5698
vn 0.7382 -0.4921 -0.4614
vn -0.1035 -0.6654 -0.7393
vn -0.3046 -0.5077 0.8059
vn -0.5292 -0.7542 0.3887
vn -0.0000 -0.7586 0.6516
vn -0.0000 -0.6577 -0.7533
vn -0.8920 -0.2973 0.3405
vn -0.3546 -0.7093 0.6092
vn -0.2577 -0.8589 -0.4426
vn -0.1046 -0.5301 0.8414
vn -0.1136 -0.9470 -0.3006
vn -0.0384 -0.9608 0.2745
vn 0.1794 -0.7177 0.6728
vn 0.0767 -0.9587 0.2739
vn -0.0000 -0.9615 -0.2747
vn 0.2722 -0.6804 0.6804
vn -0.1400 -0.7001 0.7001
vn -0.1914 -0.9572 0.2171
vn -0.0000 -0.9615 0.2747
vn -0.0000 -0.7071 -0.7071
vn -0.3725 -0.6208 -0.6898
vn -0.0000 -0.9531 -0.3026
vn 0.1932 -0.9659 -0.1725
vn -0.2611 -0.9414 0.2135
vn -0.2611 -0.9414 -0.2135
vn -0.5292 -0.7542 -0.3887
vn -0.1046 -0.5301 -0.8414
vn -0.0821 0.5880 0.8047
vn -0.0000 0.4805 0.8770
vn 0.0042 0.9881 -0.1535
vn -0.0226 0.5649 -0.8248
vn 0.0349 0.9918 0.1232
vn 0.2284 0.7885 0.5711
vn 0.1865 0.7283 -0.6594
vn 0.0297 0.9318 -0.3618
vn -0.0000 0.2141 0.9768
vn 0.6272 0.5774 0.5227
vn -0.0719 0.4793 -0.8747
vn 0.1291 0.9799 0.1522
vn 0.6131 0.3193 -0.7226
vn -0.0883 0.7760 0.6245
vn -0.1165 0.8044 -0.5826
vn -0.0174 0.9922 -0.1233
vn -0.0019 0.9906 0.1368
vn 0.0060 0.8991 0.4376
vn 0.0789 0.5633 -0.8225
vn -0.0522 0.9893 -0.1366
vn -0.0072 0.9811 0.1935
vn -0.3207 0.7379 -0.5938
vn -0.2768 0.6306 0.7250
vn 0.0376 0.9728 0.2284
vn -0.1552 0.6483 -0.7454
vn -0.0074 0.9811 -0.1935
vn -0.1461 0.9805 0.1312
vn -0.0937 0.9692 -0.2276
vn -0.4254 0.5339 -0.7307
vn -0.3528 0.3757 0.8570
vn -0.4835 0.8745 0.0378
vn -0.5675 0.3306 0.7541
vn -0.6505 0.7349 -0.1917
vn -0.4374 0.4941 -0.7514
vn 0.2722 -0.6804 -0.6804
vn 0.1794 -0.7177 -0.6728
vn 0.6449 -0.7524 -0.1344
vn 0.7382 -0.4921 0.4614
vn -0.1400 -0.7001 -0.7001
vn -0.3725 -0.6208 0.6898
vn -0.2577 -0.8589 0.4426
vn -0.3546 -0.7093 -0.6092
vn -0.8920 -0.2973 -0.3405
vn -0.0000 -0.6577 0.7533
vn -0.0000 -0.7586 -0.6516
vn -0.1914 -0.9572 -0.2171
vn -0.0000 -0.9531 0.3026
vn 0.6838 -0.4558 0.5698
vn 0.6449 -0.7524 0.1344
vn 0.1932 -0.9659 0.1725
vn 0.2136 -0.6103 0.7628
vn -0.1035 -0.6654 0.7393
vn -0.1136 -0.9470 0.3006
vn -0.3046 -0.5077 -0.8059
vn -0.0384 -0.9608 -0.2745
vn 0.0767 -0.9587 -0.2739
vt 0.625018 0.624947
vt 0.562527 0.374982
vt 0.625018 0.374982
vt 0.493983 0.624947
vt 0.437544 0.374982
vt 0.493983 0.374982
vt 0.500035 0.624947
vt 0.437544 0.624947
vt 0.375053 0.374982
vt 0.500035 0.374982
vt 0.506088 0.624947
vt 0.562527 0.624947
vt 0.506088 0.374982
vt 0.375053 0.624947
vt 0.474266 0.473812
vt 0.154071 0.708693
vt 0.097633 0.708693
vt 0.160124 0.708693
vt 0.166177 0.708693
vt 0.222615 0.708693
vt 0.035142 0.708693
vt 0.285106 0.708693
vt 0.035142 0.896211
vt 0.097642 0.833728
vt 0.066387 0.896211
vt 0.094607 0.896211
vt 0.100659 0.896211
vt 0.160124 0.896211
vt 0.128878 0.896211
vt 0.222615 0.958658
vt 0.097633 0.958658
vt 0.035142 0.958658
vt 0.160124 0.958658
vt 0.097633 0.896211
vt 0.285106 0.958658
s 0
f 4/1/1 5/2/1 3/3/1
f 13/4/2 9/5/2 12/6/2
f 12/6/3 8/7/3 13/4/3
f 10/8/4 1/9/4 9/5/4
f 7/10/5 14/11/5 8/7/5
f 6/12/6 11/13/6 5/2/6
f 8/7/7 20/4/7 13/4/7
f 13/4/8 19/8/8 10/8/8
f 8/7/9 21/11/9 18/7/9
f 14/11/10 17/12/10 21/11/10
f 6/12/11 16/1/11 17/12/11
f 10/8/12 15/14/12 2/14/12
f 20/4/13 26/8/13 19/8/13
f 18/7/14 27/4/14 20/4/14
f 17/12/15 23/1/15 24/12/15
f 18/7/16 28/11/16 25/7/16
f 21/11/17 24/12/17 28/11/17
f 19/8/18 22/14/18 15/14/18
f 28/11/19 24/12/19 25/7/19
f 27/4/20 25/7/20 26/8/20
f 25/7/21 24/12/21 29/15/21
f 25/7/22 29/15/22 26/8/22
f 23/1/23 29/15/23 24/12/23
f 26/8/24 29/15/24 22/14/24
f 5/2/25 31/3/25 3/3/25
f 9/5/26 30/9/26 34/5/26
f 12/6/27 34/5/27 36/6/27
f 11/13/28 32/2/28 5/2/28
f 12/6/29 33/10/29 7/10/29
f 11/13/30 33/10/30 35/13/30
f 36/16/31 41/17/31 43/16/31
f 36/16/32 43/16/32 33/18/32
f 35/19/33 33/18/33 42/19/33
f 35/13/34 39/2/34 32/2/34
f 34/5/35 37/9/35 41/5/35
f 32/2/36 38/3/36 31/3/36
f 42/19/37 33/18/37 43/16/37
f 43/16/38 47/19/38 42/19/38
f 42/19/39 45/20/39 39/20/39
f 41/17/40 40/21/40 46/17/40
f 39/20/41 44/22/41 38/22/41
f 43/16/42 46/17/42 48/16/42
f 47/19/43 51/20/43 45/20/43
f 48/16/44 53/19/44 47/19/44
f 48/16/45 52/17/45 54/16/45
f 46/17/46 49/21/46 52/17/46
f 45/20/47 50/22/47 44/22/47
f 56/23/48 60/24/48 58/25/48
f 53/19/49 61/26/49 59/27/49
f 61/26/50 58/25/50 60/24/50
f 55/28/51 57/29/51 60/24/51
f 57/29/52 59/27/52 60/24/52
f 51/20/53 59/27/53 57/29/53
f 50/22/54 57/29/54 55/28/54
f 52/17/55 61/26/55 54/16/55
f 60/24/56 59/27/56 61/26/56
f 49/21/57 58/25/57 52/17/57
f 72/30/58 3/22/58 71/20/58
f 79/31/59 15/32/59 76/31/59
f 76/31/60 15/32/60 22/32/60
f 29/24/61 65/33/61 22/32/61
f 30/21/62 78/17/62 77/17/62
f 75/20/63 38/22/63 73/20/63
f 44/22/64 68/18/64 73/20/64
f 68/18/65 50/22/65 69/18/65
f 56/23/66 69/18/66 70/34/66
f 60/24/67 70/34/67 55/28/67
f 55/28/68 69/18/68 50/22/68
f 68/18/69 49/21/69 40/21/69
f 38/22/70 44/22/70 73/20/70
f 66/18/71 80/17/71 77/17/71
f 75/20/72 62/18/72 71/20/72
f 64/33/73 65/33/73 23/35/73
f 63/33/74 74/30/74 72/30/74
f 79/31/75 62/18/75 78/17/75
f 72/30/76 16/35/76 4/35/76
f 31/22/77 71/20/77 3/22/77
f 66/18/78 73/20/78 67/18/78
f 63/33/79 71/20/79 62/18/79
f 2/32/80 78/17/80 1/21/80
f 77/17/81 37/21/81 30/21/81
f 77/17/82 62/18/82 66/18/82
f 63/33/83 76/31/83 64/33/83
f 73/20/84 68/18/84 67/18/84
f 67/18/85 68/18/85 80/17/85
f 68/18/86 40/21/86 80/17/86
f 40/21/87 37/21/87 80/17/87
f 39/20/88 45/20/88 44/22/88
f 4/1/1 6/12/1 5/2/1
f 13/4/2 10/8/2 9/5/2
f 12/6/3 7/10/3 8/7/3
f 10/8/4 2/14/4 1/9/4
f 7/10/5 11/13/5 14/11/5
f 6/12/6 14/11/6 11/13/6
f 8/7/89 18/7/89 20/4/89
f 13/4/90 20/4/90 19/8/90
f 8/7/91 14/11/91 21/11/91
f 14/11/92 6/12/92 17/12/92
f 6/12/93 4/1/93 16/1/93
f 10/8/94 19/8/94 15/14/94
f 20/4/95 27/4/95 26/8/95
f 18/7/96 25/7/96 27/4/96
f 17/12/97 16/1/97 23/1/97
f 18/7/98 21/11/98 28/11/98
f 21/11/99 17/12/99 24/12/99
f 19/8/100 26/8/100 22/14/100
f 5/2/101 32/2/101 31/3/101
f 9/5/102 1/9/102 30/9/102
f 12/6/103 9/5/103 34/5/103
f 11/13/104 35/13/104 32/2/104
f 12/6/105 36/6/105 33/10/105
f 11/13/106 7/10/106 33/10/106
f 36/6/107 34/5/107 41/5/107
f 35/19/108 42/19/108 39/20/108
f 34/5/109 30/9/109 37/9/109
f 32/2/110 39/2/110 38/3/110
f 43/16/38 48/16/38 47/19/38
f 42/19/111 47/19/111 45/20/111
f 41/17/112 37/21/112 40/21/112
f 43/16/113 41/17/113 46/17/113
f 47/19/114 53/19/114 51/20/114
f 48/16/44 54/16/44 53/19/44
f 48/16/115 46/17/115 52/17/115
f 46/17/116 40/21/116 49/21/116
f 45/20/117 51/20/117 50/22/117
f 53/19/49 54/16/49 61/26/49
f 51/20/118 53/19/118 59/27/118
f 50/22/119 51/20/119 57/29/119
f 52/17/120 58/25/120 61/26/120
f 49/21/121 56/23/121 58/25/121
f 72/30/58 4/35/58 3/22/58
f 79/31/122 2/32/122 15/32/122
f 65/33/123 64/33/123 22/32/123
f 64/33/124 76/31/124 22/32/124
f 29/24/125 23/35/125 65/33/125
f 30/21/126 1/21/126 78/17/126
f 75/20/127 31/22/127 38/22/127
f 68/18/128 44/22/128 50/22/128
f 56/23/129 49/21/129 69/18/129
f 60/24/130 56/23/130 70/34/130
f 55/28/131 70/34/131 69/18/131
f 68/18/132 69/18/132 49/21/132
f 66/18/133 67/18/133 80/17/133
f 75/20/134 66/18/134 62/18/134
f 23/35/135 16/35/135 74/30/135
f 74/30/136 64/33/136 23/35/136
f 63/33/137 64/33/137 74/30/137
f 79/31/75 63/33/75 62/18/75
f 72/30/138 74/30/138 16/35/138
f 31/22/139 75/20/139 71/20/139
f 66/18/140 75/20/140 73/20/140
f 63/33/79 72/30/79 71/20/79
f 2/32/80 79/31/80 78/17/80
f 77/17/141 80/17/141 37/21/141
f 77/17/142 78/17/142 62/18/142
f 63/33/143 79/31/143 76/31/143
